# xmcd
#
# Track frame offsets:
#	150
#	21861
#	38517
#	57791
#	72441
#	89373
#	105250
#	115187
#	130785
#	158935
#	176919
#	193425
#
# Disc length: 2690 seconds
#
# Revision: 1
# Processed by: cddbd v1.4PL0 Copyright (c) Steve Scherf et al.
# Submitted via: audiograbber 1.81.03
#
DISCID=a00a800c
DTITLE=Magic Red and the Voodoo Tribe - Fire and Soul
DYEAR=2002
DGENRE=Blues
TTITLE0=April Showers
TTITLE1=It's Alright
TTITLE2=Shades of Blue
TTITLE3=Viagra
TTITLE4=Bittersweet
TTITLE5=I'm Drunk
TTITLE6=The Sit Down Song
TTITLE7=Hey Baby
TTITLE8=The Bitch Done Sold Me Out
TTITLE9=Bye Bye
TTITLE10=Mumbo Jumbo Voodoo Gumbo
TTITLE11=Alone
EXTD=
EXTT0=
EXTT1=
EXTT2=
EXTT3=
EXTT4=
EXTT5=
EXTT6=
EXTT7=
EXTT8=
EXTT9=
EXTT10=
EXTT11=
PLAYORDER=
